<svg xmlns="http://www.w3.org/2000/svg" width="64.469" height="68.394" viewBox="0 0 64.469 68.394"><defs><style>.a{fill:#fff;}</style></defs><g transform="translate(-128.108 -98.109)"><path class="a" d="M147.3,166.5H134.942a6.841,6.841,0,0,1-6.834-6.834V104.943a6.841,6.841,0,0,1,6.834-6.834H179.3a6.841,6.841,0,0,1,6.833,6.834v15.949a2.642,2.642,0,1,1-5.283,0V104.943a1.571,1.571,0,0,0-1.55-1.55H134.942a1.571,1.571,0,0,0-1.55,1.55V159.67a1.571,1.571,0,0,0,1.55,1.55H147.3a2.642,2.642,0,0,1,0,5.283Z"/><path class="a" d="M289.922,265.633h-26.93a2.642,2.642,0,0,1,0-5.283h26.93a2.642,2.642,0,1,1,0,5.283Zm-3.632,12.939H263.012a2.642,2.642,0,1,1,0-5.283H286.29a2.642,2.642,0,0,1,0,5.283ZM278.7,291.779h-15.6a2.642,2.642,0,1,1,0-5.283h15.6a2.642,2.642,0,1,1,0,5.283Zm-2.417,23.187-.26-12.1a4.13,4.13,0,0,1,1.07-3.853l21.722-24.383a3.592,3.592,0,0,1,2.341-1.193,3.481,3.481,0,0,1,2.644.856l8.954,7.977a3.537,3.537,0,0,1,.244,4.985l-5.454,6.182a2.642,2.642,0,0,1-3.962-3.5l4.331-4.909-6.295-5.608-20.338,22.829q.018.19.022.381l.138,6.423,5.617-.646q.138-.138.268-.284l.019-.021,11.146-12.25a2.642,2.642,0,1,1,3.908,3.556l-11.138,12.24a10.3,10.3,0,0,1-1.14,1.106,3.535,3.535,0,0,1-2.685.927ZM276.1,303.1v0Z" transform="translate(-121.326 -148.848)"/><path class="a" d="M682.939,519.7a2.634,2.634,0,0,1-1.9-.8l-8.161-8.417a2.642,2.642,0,0,1,3.793-3.678l8.161,8.417a2.642,2.642,0,0,1-1.9,4.48Z" transform="translate(-499.119 -374.22)"/></g></svg>