<svg xmlns="http://www.w3.org/2000/svg" width="72.592" height="69.394" viewBox="0 0 72.592 69.394"><defs><style>.a{fill:#fff;stroke:#fff;}</style></defs><path class="a" d="M65.742,6.462C60.738,1.121,55.385,0,51.776,0A18.149,18.149,0,0,0,40.422,3.936c-1.183,1.028-2.8,2.548-4.617,4.313C34.339,6.812,33.28,5.8,32.65,5.241,27.912,1.024,15.239-2.929,6.027,6.526A21.326,21.326,0,0,0,.861,14.735a17.458,17.458,0,0,0-.732,7.5,22.516,22.516,0,0,0,3.318,9.093c.063.1.114.189.154.256,1.446,2.486,5.844,6.4,6.573,7.035L8.794,40.013a5.307,5.307,0,0,0,3.765,9.045,5.37,5.37,0,0,0,1.192-.135,5.424,5.424,0,0,0-.049.736,5.307,5.307,0,0,0,5.307,5.288A5.356,5.356,0,0,0,20,54.853a5.306,5.306,0,0,0,5.275,5.879,5.376,5.376,0,0,0,1.014-.1,5.375,5.375,0,0,0-.034.616,5.308,5.308,0,0,0,8.083,4.5l1.174,1.177a5.047,5.047,0,0,0,3.613,1.462,6.046,6.046,0,0,0,4.243-1.8,5.964,5.964,0,0,0,1.758-5.031,5.422,5.422,0,0,0,.669.042q.175,0,.353-.011a6.319,6.319,0,0,0,5.793-5.771,5.55,5.55,0,0,0-.023-.979,5.463,5.463,0,0,0,.585.032q.177,0,.354-.011a6.166,6.166,0,0,0,3.956-1.822,6.047,6.047,0,0,0,1.793-5.063,5.537,5.537,0,0,0,.779.056A6.168,6.168,0,0,0,63.711,46.2l.026-.026A5.783,5.783,0,0,0,63.9,38.3l-.958-1.013c1.31-1.4,3.994-4.286,5.018-5.543a18.693,18.693,0,0,0,3.6-10.233,20.025,20.025,0,0,0-5.823-15.05Zm-55.2,39.317a2.858,2.858,0,0,1-.015-4.041l7.478-7.531a2.857,2.857,0,0,1,4.056,4.026l-7.478,7.532a2.857,2.857,0,0,1-4.041.015ZM17,51.667a2.857,2.857,0,0,1-.014-4.041L24.459,40.1a2.857,2.857,0,0,1,4.056,4.026l-7.478,7.531A2.857,2.857,0,0,1,17,51.667Zm6.269,5.786a2.858,2.858,0,0,1-.014-4.041l7.477-7.531a2.857,2.857,0,1,1,4.056,4.026l-7.477,7.531a2.858,2.858,0,0,1-4.041.015Zm8.3,6.636a2.857,2.857,0,0,1-2.028-4.87l7.477-7.532a2.857,2.857,0,1,1,4.056,4.026l-7.478,7.532a2.838,2.838,0,0,1-2.028.844Zm10.078.773a3.139,3.139,0,0,1-4.393.342l-1.078-1.081L40.9,59.364,42,60.471a3.139,3.139,0,0,1-.359,4.391ZM61.969,44.477a3.186,3.186,0,0,1-4.436.386l-.013-.013L47.484,35.359l-.975,1.031-.748.746,9.728,9.741a3.176,3.176,0,0,1-.4,4.433,3.719,3.719,0,0,1-2.378,1.113,2.62,2.62,0,0,1-2.057-.729l-9.942-9.969-1.734,1.729.078.078,9.712,10.059.013.014a2.62,2.62,0,0,1,.721,2.059A3.872,3.872,0,0,1,46,59.152a2.618,2.618,0,0,1-2.057-.729l-1.061-1.063a5.305,5.305,0,0,0-3.84-8.966,5.384,5.384,0,0,0-1.017.1,5.305,5.305,0,0,0-6.263-5.811,5.42,5.42,0,0,0,.031-.592A5.307,5.307,0,0,0,26.487,36.8a5.371,5.371,0,0,0-1.192.135,5.368,5.368,0,0,0,.049-.736,5.306,5.306,0,0,0-9.072-3.72l-4.747,4.781.352-.406c-1.335-1.16-5.045-4.588-6.158-6.5-.045-.077-.1-.176-.177-.294-4.776-7.872-4-15.419,2.24-21.825A16.273,16.273,0,0,1,20.859,3.2a17.831,17.831,0,0,1,10.163,3.87c.6.531,1.615,1.5,3.032,2.891-6.595,6.5-14.739,14.971-15.209,15.46l-.815.848.815.848c.22.229,5.471,5.625,11.355,5.625.235,0,.471-.009.7-.026a15.432,15.432,0,0,0,9.343-4.089l5.884-5.459,8.344,8.7-.012.012,7.67,8.115.022.023a3.377,3.377,0,0,1-.184,4.461Zm7.151-23.1A16.1,16.1,0,0,1,66.062,30.2c-.931,1.142-3.418,3.823-4.756,5.254L46.229,19.737l-7.659,7.105-.018.017a13.136,13.136,0,0,1-7.763,3.412l-.053,0c-.176.014-.356.02-.537.02-3.606,0-7.144-2.687-8.727-4.07,3.381-3.5,15.777-16.289,20.555-20.439a15.564,15.564,0,0,1,9.748-3.336c4.546,0,8.643,1.913,12.179,5.687a17.632,17.632,0,0,1,5.165,13.243Zm0,0" transform="translate(0.496 0.5)"/></svg>