<svg xmlns="http://www.w3.org/2000/svg" width="76.925" height="76.925" viewBox="0 0 76.925 76.925"><defs><style>.a{fill:#fff;}</style></defs><g transform="translate(-58.514 -53.638)"><path class="a" d="M378,226.482c0-1.645.411-3.291,1.234-3.7a4.049,4.049,0,0,1,3.291-1.234,5.945,5.945,0,0,1,2.88.823,3.735,3.735,0,0,1,1.234,2.88,4.444,4.444,0,0,1-1.234,2.88l-4.936,6.993a3.556,3.556,0,0,0-1.234,2.468c0,.823-.411,1.645-.411,2.88v4.114h7.4v-3.7a5.945,5.945,0,0,1,.823-2.88l4.936-6.582a10.1,10.1,0,0,0,2.057-6.171c0-3.291-1.234-6.17-3.7-7.816a13.193,13.193,0,0,0-16.455,0,12.23,12.23,0,0,0-3.291,8.227v2.057H378Zm.823,20.98h7.4v6.993h-7.4Z" transform="translate(-285.749 -147.339)"/><path class="a" d="M58.514,53.638v64.173H82.785l13.986,12.752,13.986-12.752H135.44V53.638ZM128.8,111.584H108.467l-11.7,9.873-11.7-9.873H64.742V59.865H128.8Z"/></g></svg>